<svg id="Layer_1" data-name="Layer 1" xmlns="http://www.w3.org/2000/svg" viewBox="0 0 128.69 102.52"><defs><style>.cls-1{fill:#7756a3;fill-rule:evenodd;}</style></defs><path class="cls-1" d="M28.75,1.71c-7.34,0-12.78,6.43-12.53,13.4.23,6.7-.07,15.37-2.26,22.44S8.07,49.14,2,49.71v6.52c6.05.58,9.75,5.07,11.94,12.16s2.49,15.75,2.26,22.44c-.25,7,5.19,13.4,12.53,13.4H104c7.34,0,12.78-6.43,12.53-13.4-.23-6.69.07-15.37,2.25-22.44s5.89-11.59,11.94-12.16V49.71c-6.05-.57-9.74-5.07-11.94-12.16s-2.48-15.74-2.25-22.44c.25-7-5.19-13.4-12.53-13.4ZM89.27,64.82c0,9.6-7.16,15.42-19,15.42H50a2.19,2.19,0,0,1-2.19-2.19h0V27.89A2.18,2.18,0,0,1,50,25.71h20.1c9.91,0,16.41,5.36,16.41,13.6a12.19,12.19,0,0,1-10,11.87v.3c7.59.83,12.7,6.08,12.7,13.34ZM68,32.62H56.49V48.91H66.2c7.51,0,11.65-3,11.65-8.43,0-5.06-3.56-7.86-9.83-7.86ZM56.49,55.37V73.32h12c7.81,0,12-3.14,12-9s-4.25-8.92-12.46-8.92Z" transform="translate(-2.02 -1.71)"/></svg>