<svg id="Layer_1" data-name="Layer 1" xmlns="http://www.w3.org/2000/svg" xmlns:xlink="http://www.w3.org/1999/xlink" viewBox="0 0 74.69 104.63"><defs><style>.cls-1{fill:#2363af;}.cls-2{fill:#3d9cd6;}.cls-10,.cls-3{fill:#231f20;}.cls-4{fill:#fff;}.cls-5{fill:url(#linear-gradient);}.cls-6{fill:url(#linear-gradient-2);}.cls-7{fill:url(#linear-gradient-3);}.cls-10,.cls-8{opacity:0.05;}.cls-9{fill:url(#linear-gradient-4);}.cls-10{isolation:isolate;}</style><linearGradient id="linear-gradient" x1="29.81" y1="47.51" x2="29.81" y2="65.51" gradientTransform="matrix(1, 0, 0, -1, -3.35, 111.22)" gradientUnits="userSpaceOnUse"><stop offset="0.39" stop-color="#d2d3d4" stop-opacity="0"/><stop offset="1" stop-color="#d2d3d4"/></linearGradient><linearGradient id="linear-gradient-2" x1="52.3" y1="56.48" x2="52.3" y2="75.2" xlink:href="#linear-gradient"/><linearGradient id="linear-gradient-3" x1="18.99" y1="39.48" x2="62.22" y2="39.48" gradientTransform="matrix(1, 0, 0, -1, -3.35, 111.22)" gradientUnits="userSpaceOnUse"><stop offset="0" stop-color="#e8e7e5"/><stop offset="1" stop-color="#fff"/></linearGradient><linearGradient id="linear-gradient-4" x1="17" y1="70.61" x2="63.93" y2="70.61" xlink:href="#linear-gradient-3"/></defs><polygon class="cls-1" points="67.69 96.46 37.35 104.63 7 96.46 0 20.6 74.69 20.6 67.69 96.46"/><polygon class="cls-2" points="37.35 26.75 37.35 98.12 37.41 98.13 61.97 91.52 67.64 26.75 37.35 26.75"/><polygon class="cls-3" points="20.13 9.46 20.13 4.94 26.71 4.94 26.71 0 15.18 0 15.18 13.96 26.71 13.96 26.71 9.46 20.13 9.46"/><path class="cls-3" d="M41.91,6.14h4.61V1.2H35V6.14c1.54,1.54,2.35,2.28,4.58,4.52H35v4.5H46.52v-4.5Z" transform="translate(-3.35 -1.2)"/><path class="cls-3" d="M58.26,6.14h4.6V1.2H51.33V6.14c1.54,1.54,2.35,2.28,4.58,4.51H51.33v4.51H62.86v-4.5Z" transform="translate(-3.35 -1.2)"/><polygon class="cls-4" points="37.32 45.71 15.6 54.76 16.32 63.71 37.32 54.73 59.66 45.19 60.58 36.02 37.32 45.71"/><polygon class="cls-5" points="15.6 54.76 16.32 63.71 37.32 54.73 37.32 45.71 15.6 54.76"/><polygon class="cls-6" points="60.58 36.02 37.32 45.71 37.32 54.73 59.66 45.19 60.58 36.02"/><polygon class="cls-7" points="15.63 54.76 16.36 63.71 48.57 63.82 47.85 75.76 37.25 78.74 27.06 76.17 26.44 68.76 16.97 68.76 18.21 83.06 37.35 88.73 56.4 83.17 58.87 54.76 15.63 54.76"/><g class="cls-8"><polygon class="cls-3" points="37.32 54.76 15.6 54.76 16.32 63.71 37.32 63.78 37.32 54.76"/><polygon class="cls-3" points="37.32 78.71 37.22 78.74 27.03 76.17 26.41 68.76 16.94 68.76 18.17 83.06 37.32 88.73 37.32 78.71"/></g><polygon class="cls-9" points="13.64 36.02 60.58 36.02 59.66 45.19 14.78 45.19 13.64 36.02"/><polygon class="cls-10" points="37.32 36.02 13.64 36.02 14.78 45.19 37.32 45.19 37.32 36.02"/></svg>