<svg id="Layer_1" data-name="Layer 1" xmlns="http://www.w3.org/2000/svg" viewBox="0 0 64.57 90.89"><path d="M31,9.28H27.23V5.22H23.11V17.47h4.12V13.41H31v4.06h4.13V5.22H31ZM59.71,5.22h-.36L56.8,9.41,54.24,5.22H50V17.47h4V11.35l2.83,4.41v0h0v0l2.91-4.53v6.24h4V5.22h-4ZM36.87,9.34h3.59v8.13h4.12V9.34h3.59V5.22H36.87Zm33.06,4V5.22H65.8V17.47h9.86V13.35Z" transform="translate(-17.1 -5.22)" style="fill:#010101"/><polygon points="64.58 17.82 32.29 17.82 32.29 17.82 0 17.82 6.05 83.45 32.29 90.89 32.29 90.89 32.29 90.89 32.29 90.89 32.29 90.89 58.52 83.45 64.58 17.82" style="fill:#e44f26"/><polygon points="32.29 23.17 32.29 85.33 32.29 85.33 53.53 79.31 58.71 23.17 32.29 23.17" style="fill:#f1672a"/><polygon points="52.6 31.21 11.97 31.21 14.24 55.8 14.29 55.64 42.05 55.64 41.14 66.04 32.3 68.59 23.3 66 22.76 59.71 14.6 59.71 15.76 72.28 32.29 76.97 48.81 72.28 51.09 47.6 21.64 47.6 20.88 39.38 51.85 39.38 52.6 31.21" style="fill:#fff"/><path d="M49.39,36.43H29.07L31.34,61l.05-.16h18v-8H38.74L38,44.59H49.39Zm-9.53,28.5H31.7L32.86,77.5l16.53,4.68V73.81l-9-2.59Z" transform="translate(-17.1 -5.22)" style="fill:#ebebeb"/></svg>