<?xml version="1.0" encoding="utf-8"?>
<!-- Generator: Adobe Illustrator 24.1.1, SVG Export Plug-In . SVG Version: 6.00 Build 0)  -->
<svg version="1.1" id="Layer_1" xmlns="http://www.w3.org/2000/svg" xmlns:xlink="http://www.w3.org/1999/xlink" x="0px" y="0px"
	 viewBox="0 0 184.35 98.51" style="enable-background:new 0 0 184.35 98.51;" xml:space="preserve">
<style type="text/css">
	.st0{fill:#FFFFFF;}
	.st1{font-family:'TwCenMT-Regular';}
	.st2{font-size:10.511px;}
	.st3{font-family:'TwCenMT-Bold';}
	.st4{font-size:16.8176px;}
	.st5{font-size:25.387px;}
	.st6{fill-rule:evenodd;clip-rule:evenodd;fill:#FFFFFF;}
</style>
<text id="Slogan" transform="matrix(1 0 0 1 38.8989 72.5432)" class="st0 st1 st2">ITS ROYAL FASHION</text>
<text id="Replace_With_Your_Brand_Name" transform="matrix(1 0 0 1 24.7885 62.5978)"><tspan x="0" y="0" class="st0 st3 st4">ROYAL </tspan><tspan x="55.28" y="0" class="st0 st1 st4">RUNAWAY</tspan></text>
<text id="Replace_With_Your_Brand_Name_4_" transform="matrix(1 0 0 1 73.5724 50.8636)" class="st0 st1 st5">THE</text>
<polygon class="st6" points="92.36,75.28 98.38,82.55 92.36,89.82 86.34,82.55 92.36,75.28 "/>
<path class="st6" d="M76.41,79.37c-1.75,0-3.18,1.42-3.18,3.18c0,1.75,1.42,3.18,3.18,3.18c1.75,0,3.18-1.42,3.18-3.18
	C79.59,80.8,78.16,79.37,76.41,79.37L76.41,79.37z"/>
<path class="st6" d="M29.42,67.63c-0.37,0-0.67,0.3-0.67,0.67c0,0.37,0.3,0.67,0.67,0.67c0.37,0,0.67-0.3,0.67-0.67
	C30.09,67.93,29.79,67.63,29.42,67.63L29.42,67.63z"/>
<path class="st6" d="M33.39,73.06c-0.55,0-1,0.45-1,1s0.45,1,1,1c0.55,0,1-0.45,1-1S33.94,73.06,33.39,73.06L33.39,73.06z"/>
<path class="st6" d="M38.96,78.02c-0.74,0-1.34,0.6-1.34,1.34c0,0.74,0.6,1.34,1.34,1.34s1.34-0.6,1.34-1.34
	C40.3,78.62,39.7,78.02,38.96,78.02L38.96,78.02z"/>
<path class="st6" d="M46.31,81.81c-1.02,0-1.84,0.82-1.84,1.84c0,1.02,0.82,1.84,1.84,1.84c1.02,0,1.84-0.82,1.84-1.84
	C48.15,82.64,47.32,81.81,46.31,81.81L46.31,81.81z"/>
<path class="st6" d="M55.48,83.85c-1.29,0-2.34,1.05-2.34,2.34s1.05,2.34,2.34,2.34s2.34-1.05,2.34-2.34S56.77,83.85,55.48,83.85
	L55.48,83.85z"/>
<path class="st6" d="M65.77,83.39c-1.48,0-2.67,1.2-2.67,2.67c0,1.48,1.2,2.67,2.67,2.67c1.48,0,2.67-1.2,2.67-2.67
	C68.45,84.59,67.25,83.39,65.77,83.39L65.77,83.39z"/>
<path class="st6" d="M107.97,79.37c1.75,0,3.18,1.42,3.18,3.18c0,1.75-1.42,3.18-3.18,3.18c-1.75,0-3.18-1.42-3.18-3.18
	C104.79,80.8,106.21,79.37,107.97,79.37L107.97,79.37z"/>
<path class="st6" d="M154.95,67.63c0.37,0,0.67,0.3,0.67,0.67c0,0.37-0.3,0.67-0.67,0.67c-0.37,0-0.67-0.3-0.67-0.67
	C154.29,67.93,154.59,67.63,154.95,67.63L154.95,67.63z"/>
<path class="st6" d="M150.99,73.06c0.55,0,1,0.45,1,1s-0.45,1-1,1c-0.55,0-1-0.45-1-1S150.43,73.06,150.99,73.06L150.99,73.06z"/>
<path class="st6" d="M145.41,78.02c0.74,0,1.34,0.6,1.34,1.34c0,0.74-0.6,1.34-1.34,1.34c-0.74,0-1.34-0.6-1.34-1.34
	C144.08,78.62,144.67,78.02,145.41,78.02L145.41,78.02z"/>
<path class="st6" d="M138.07,81.81c1.02,0,1.84,0.82,1.84,1.84c0,1.02-0.82,1.84-1.84,1.84c-1.02,0-1.84-0.82-1.84-1.84
	C136.23,82.64,137.05,81.81,138.07,81.81L138.07,81.81z"/>
<path class="st6" d="M128.9,83.85c1.29,0,2.34,1.05,2.34,2.34s-1.05,2.34-2.34,2.34c-1.29,0-2.34-1.05-2.34-2.34
	S127.61,83.85,128.9,83.85L128.9,83.85z"/>
<path class="st6" d="M118.61,83.39c1.48,0,2.68,1.2,2.68,2.67c0,1.48-1.2,2.67-2.68,2.67c-1.48,0-2.67-1.2-2.67-2.67
	C115.93,84.59,117.13,83.39,118.61,83.39z"/>
<path class="st6" d="M173.63,89.81c-0.13,0-0.26,0.01-0.39,0c-1.26-0.01-2.49-0.25-3.65-0.74c-4.44-1.86-7.1-6.94-7.76-13.54
	l-2.39-0.35l2.33-0.34c-0.06-0.77-0.09-1.56-0.1-2.37l-3.37-0.5l3.37-0.5c0.02-0.78,0.05-1.56,0.12-2.37l-2.35-0.34l2.41-0.35
	c0.4-4.11,1.43-8.51,3.14-12.91c0.98-2.53,2.13-4.9,3.4-7.07c-2.34,2.01-4.92,3.75-7.69,5.15l-0.56-0.6v0
	c4.09-2.16,7.77-5.06,10.85-8.53c0.08-0.11,0.16-0.21,0.24-0.32l-0.18-4.11l4.75-1.17l0.22,5.06l-3.86,0.95
	c-2.08,2.92-3.93,6.34-5.41,10.14c-4.69,12.06-4.14,24.11,0.79,29.86c1.33,1.61,3.64,2.98,5.72,2.98c2.7,0,4.88-2.25,4.92-5.04
	l0-0.11c0-2.51-1.68-4.6-3.94-5.14c0.55,0.61,0.89,1.44,0.89,2.35c0,1.9-1.48,3.44-3.31,3.44c-1.83,0-3.31-1.54-3.31-3.44
	c0-1.25,0.64-2.34,1.6-2.95c0-0.01,0.26-0.15,0.28-0.16c0.9-0.47,1.92-0.74,2.99-0.74c3.66,0,6.63,3.08,6.63,6.88
	C180.01,86.6,177.15,89.74,173.63,89.81L173.63,89.81z"/>
<path class="st6" d="M13.76,44.14l0.18-4.11L9.2,38.86l-0.22,5.06l3.86,0.95c2.08,2.92,3.93,6.34,5.41,10.14
	c4.69,12.06,4.14,24.11-0.79,29.86c-1.33,1.61-3.64,2.98-5.72,2.98c-2.7,0-4.88-2.25-4.92-5.04l0-0.11c0-2.51,1.68-4.6,3.94-5.14
	C10.2,78.18,9.86,79,9.86,79.91c0,1.9,1.48,3.44,3.31,3.44c1.83,0,3.31-1.54,3.31-3.44c0-1.25-0.64-2.34-1.6-2.95
	c0-0.01-0.26-0.15-0.28-0.16c-0.9-0.47-1.92-0.74-2.99-0.74c-3.66,0-6.63,3.08-6.63,6.88c0,3.65,2.86,6.8,6.38,6.87
	c0.13,0,0.26,0.01,0.39,0c1.26-0.01,2.49-0.25,3.65-0.74c4.44-1.86,7.1-6.94,7.76-13.54l2.39-0.35l-2.33-0.34
	c0.06-0.77,0.09-1.56,0.1-2.37l3.36-0.5l-3.37-0.5c-0.02-0.78-0.05-1.56-0.12-2.37l2.35-0.34l-2.41-0.35
	c-0.4-4.11-1.43-8.51-3.14-12.91c-0.98-2.53-2.13-4.9-3.4-7.07c2.34,2.01,4.92,3.75,7.68,5.15l0.56-0.6v0
	c-4.09-2.16-7.77-5.06-10.85-8.53C13.92,44.36,13.84,44.25,13.76,44.14L13.76,44.14z"/>
<path class="st6" d="M23.21,46.74c1.82-1.64,3.6,2.09,0.19,2.83c-2.08,0.45-3.89-1.9-3.1-4.14c0.78-2.22,3.92-3.7,6.62-1.16
	c0.96,0.9,2.53,3.19,1.86,5.9c0.36-3.21-3.06-7.79-6.55-5.31c-1.69,1.2-0.62,4.26,1.46,3.67C25.29,48.08,25.01,46.12,23.21,46.74
	L23.21,46.74z"/>
<path class="st6" d="M92.36,2.13l-4.42,5.33l2.96,3.58c0.12,0.92,0.29,1.82,0.5,2.7C90,19.93,86.27,25.23,81.19,28.68l0,0l0.22,0.73
	c4.97-2.8,8.87-7.27,10.95-12.64c0.8,2.06,1.86,3.99,3.15,5.74l-1.95,0.26l2.38,0.31c0.56,0.71,1.15,1.39,1.78,2.04l-2.91,0.33
	l3.66,0.41c0.65,0.61,1.33,1.19,2.04,1.73l-3.26,0.32l4.31,0.43c0.57,0.39,1.15,0.75,1.75,1.09l0.22-0.73
	c-5.08-3.46-8.81-8.76-10.22-14.94c0.22-0.88,0.38-1.78,0.5-2.7l2.96-3.58L92.36,2.13L92.36,2.13z"/>
<path class="st6" d="M158.9,47.44c-1.82-1.64-3.6,2.09-0.19,2.83c2.08,0.45,3.89-1.9,3.1-4.14c-0.78-2.22-3.92-3.7-6.62-1.16
	c-0.96,0.9-2.54,3.19-1.86,5.9c-0.37-3.21,3.06-7.79,6.55-5.31c1.69,1.2,0.62,4.26-1.46,3.67C156.82,48.78,157.1,46.82,158.9,47.44
	L158.9,47.44z"/>
<path class="st6" d="M157.27,27.04c-3.74-0.65-7.28,1.75-7.91,5.35c-0.18,1.06-0.1,2.11,0.22,3.08c0.01,0.03,0.1,0.31,0.11,0.31
	c0.43,1.05,1.4,1.87,2.63,2.08c1.87,0.33,3.64-0.87,3.95-2.67c0.31-1.8-0.95-3.53-2.82-3.85c-0.89-0.16-1.76,0.04-2.46,0.48
	c0.92-2.13,3.27-3.43,5.74-3l0.11,0.02c2.74,0.51,4.58,3.05,4.12,5.71c-0.36,2.05-2.11,4.09-3.92,5.12
	c-6.51,3.87-18.48,2.35-29.55-4.34c-3.49-2.11-6.54-4.52-9.06-7.06l-0.28-3.97l-5.02-0.64l0.34,4.88l4.08,0.52
	c0.09,0.1,0.18,0.19,0.27,0.29c0.03,0.04,0.06,0.08,0.09,0.12c1.6,1.74,4.08,3.71,5.32,4.67c1.39,1.06,2.87,2.07,4.44,3.02
	c4.04,2.44,8.2,4.21,12.18,5.31l-0.07,2.44l0.74-2.26c0.78,0.2,1.55,0.37,2.31,0.52l-0.08,3.41l1.07-3.23
	c0.8,0.13,1.58,0.23,2.35,0.31l-0.07,2.35l0.75-2.29c6.62,0.48,12.08-1.27,14.67-5.33c0.68-1.06,1.13-2.23,1.35-3.47
	c0.02-0.13,0.05-0.26,0.06-0.39C163.48,31.02,160.87,27.66,157.27,27.04z"/>
<path class="st6" d="M28.11,27.04c3.74-0.65,7.28,1.75,7.91,5.35c0.18,1.06,0.1,2.11-0.22,3.08c-0.01,0.03-0.1,0.31-0.11,0.31
	c-0.43,1.05-1.4,1.87-2.63,2.08c-1.87,0.33-3.64-0.87-3.95-2.67c-0.31-1.8,0.95-3.53,2.82-3.85c0.89-0.16,1.76,0.04,2.46,0.48
	c-0.92-2.13-3.27-3.43-5.74-3l-0.11,0.02c-2.74,0.51-4.58,3.05-4.12,5.71c0.36,2.05,2.11,4.09,3.92,5.12
	c6.51,3.87,18.48,2.35,29.55-4.34c3.49-2.11,6.54-4.52,9.06-7.06l0.28-3.97l5.02-0.64l-0.34,4.88l-4.08,0.52
	c-0.09,0.1-0.18,0.19-0.27,0.29c-0.03,0.04-0.06,0.08-0.09,0.12c-1.6,1.74-4.08,3.71-5.32,4.67c-1.39,1.06-2.87,2.07-4.44,3.02
	c-4.04,2.44-8.2,4.21-12.18,5.31l0.07,2.44l-0.74-2.26c-0.78,0.2-1.55,0.37-2.31,0.52l0.08,3.41l-1.07-3.23
	c-0.8,0.13-1.58,0.23-2.35,0.31l0.07,2.35l-0.75-2.29c-6.62,0.48-12.08-1.27-14.67-5.33c-0.68-1.06-1.13-2.23-1.35-3.47
	c-0.02-0.13-0.05-0.26-0.06-0.39C21.9,31.02,24.51,27.66,28.11,27.04z"/>
</svg>
